<?xml version="1.0" encoding="UTF-8"?>
<svg viewBox="0 0 250 420" xmlns="http://www.w3.org/2000/svg" xmlns:xlink="http://www.w3.org/1999/xlink">
 <defs>
  <filter id="ak">
   <feGaussianBlur stdDeviation="1.76297"/>
  </filter>
  <filter id="al">
   <feGaussianBlur stdDeviation="1.93172"/>
  </filter>
  <filter id="h">
   <feGaussianBlur stdDeviation=".95365"/>
  </filter>
  <filter id="f">
   <feGaussianBlur stdDeviation=".61573"/>
  </filter>
  <filter id="g">
   <feGaussianBlur stdDeviation=".64576"/>
  </filter>
  <filter id="au" x="-.013" y="-.15529" width="1.026" height="1.3106">
   <feGaussianBlur stdDeviation="1.74686"/>
  </filter>
  <filter id="at" x="-.13303" y="-.13099" width="1.2661" height="1.262">
   <feGaussianBlur stdDeviation="2.30064"/>
  </filter>
  <filter id="b" x="-.216" y="-.3024" width="1.432" height="1.6048">
   <feGaussianBlur stdDeviation=".6648"/>
  </filter>
  <filter id="e" x="-.15263" y="-.11629" width="1.3052" height="1.2326">
   <feGaussianBlur stdDeviation=".50615"/>
  </filter>
  <filter id="d" x="-.1615" y="-.27686" width="1.323" height="1.5537">
   <feGaussianBlur stdDeviation=".60253"/>
  </filter>
  <filter id="c" x="-.39" y="-.17333" width="1.78" height="1.3467">
   <feGaussianBlur stdDeviation="3.23337"/>
  </filter>
  <filter id="as" x="-.0453" y="-.1753" width="1.0906" height="1.3506">
   <feGaussianBlur stdDeviation="1.26866"/>
  </filter>
  <filter id="ar" x="-.14365" y="-.02058" width="1.2873" height="1.0412">
   <feGaussianBlur stdDeviation="6.64799"/>
  </filter>
  <filter id="aq" x="-.08837" y="-.66486" width="1.1767" height="2.3297">
   <feGaussianBlur stdDeviation="8.78622"/>
  </filter>
  <filter id="ap" x="-.351" y="-.06382" width="1.702" height="1.1276">
   <feGaussianBlur stdDeviation="7.95178"/>
  </filter>
  <filter id="ao" x="-.55964" y="-.03847" width="2.1193" height="1.077">
   <feGaussianBlur stdDeviation="7.74789"/>
  </filter>
  <filter id="av" x="-.1287" y="-.13548" width="1.2574" height="1.271">
   <feGaussianBlur stdDeviation="18.95808"/>
  </filter>
  <filter id="an" x="-.0801" y="-.36616" width="1.1602" height="1.7323">
   <feGaussianBlur stdDeviation="2.28104"/>
  </filter>
  <filter id="am" x="-.13855" y="-.1165" width="1.2771" height="1.233">
   <feGaussianBlur stdDeviation="2.28104"/>
  </filter>
  <linearGradient id="aj" x1="-714.59" x2="-478.52" y1="318.64" y2="416.03" gradientUnits="userSpaceOnUse">
   <stop stop-color="#542200" offset="0"/>
   <stop stop-color="#471d0d" offset="1"/>
  </linearGradient>
  <linearGradient id="a">
   <stop stop-color="#a45a2a" offset="0"/>
   <stop stop-color="#422213" offset="1"/>
  </linearGradient>
  <linearGradient id="j" x1="-349.7" x2="-349.05" y1="125.12" y2="151.35" gradientUnits="userSpaceOnUse" xlink:href="#a"/>
  <linearGradient id="k" x1="-315.77" x2="-305.16" y1="98.586" y2="122.59" gradientTransform="matrix(.76413 -.64506 .64506 .76413 -377.36 -111.29)" gradientUnits="userSpaceOnUse" xlink:href="#a"/>
  <linearGradient id="l" x1="-315.77" x2="-305.16" y1="98.586" y2="122.59" gradientTransform="matrix(.04471 -1.2029 .94071 -.28035 -508.3 -61.795)" gradientUnits="userSpaceOnUse" xlink:href="#a"/>
  <linearGradient id="m" x1="-315.77" x2="-305.16" y1="98.586" y2="122.59" gradientTransform="matrix(.02635 -.93807 .7462 -.21149 -705.61 210.24)" gradientUnits="userSpaceOnUse" xlink:href="#a"/>
  <linearGradient id="n" x1="-315.77" x2="-305.16" y1="98.586" y2="122.59" gradientTransform="matrix(-.10927 -.99401 .99401 -.10927 -803.2 361.84)" gradientUnits="userSpaceOnUse" xlink:href="#a"/>
  <linearGradient id="o" x1="-315.77" x2="-305.16" y1="98.586" y2="122.59" gradientTransform="matrix(-.36351 -.57218 .34674 -.4305 -649.26 418.39)" gradientUnits="userSpaceOnUse" xlink:href="#a"/>
  <linearGradient id="p" x1="-315.77" x2="-305.16" y1="98.586" y2="122.59" gradientTransform="matrix(-.79541 -1.1548 .69538 -.86116 -728.34 138.06)" gradientUnits="userSpaceOnUse" xlink:href="#a"/>
  <linearGradient id="q" x1="-315.77" x2="-305.16" y1="98.586" y2="122.59" gradientTransform="matrix(-.34428 -.53226 .32094 -.4052 -728.91 109.15)" gradientUnits="userSpaceOnUse" xlink:href="#a"/>
  <linearGradient id="r" x1="-315.77" x2="-305.16" y1="98.586" y2="122.59" gradientTransform="matrix(-.36351 -.57218 .34674 -.4305 -679.95 613.43)" gradientUnits="userSpaceOnUse" xlink:href="#a"/>
  <linearGradient id="s" x1="-315.77" x2="-305.16" y1="98.586" y2="122.59" gradientTransform="matrix(-.72446 -.68931 .68931 -.72446 -1059.1 402.8)" gradientUnits="userSpaceOnUse" xlink:href="#a"/>
  <linearGradient id="t" x1="-238.4" x2="-167.85" y1="448.17" y2="472.17" gradientTransform="matrix(.09964 .17444 -.1786 .08637 -393.59 786.02)" gradientUnits="userSpaceOnUse" xlink:href="#a"/>
  <linearGradient id="u" x1="-238.4" x2="-167.85" y1="448.17" y2="472.17" gradientTransform="matrix(.13366 .05514 -.05514 .13366 -421.64 249.61)" gradientUnits="userSpaceOnUse" xlink:href="#a"/>
  <linearGradient id="v" x1="-238.4" x2="-167.85" y1="448.17" y2="472.17" gradientTransform="matrix(.10077 .19126 -.19126 .10077 -231.62 221.36)" gradientUnits="userSpaceOnUse" xlink:href="#a"/>
  <linearGradient id="w" x1="-238.4" x2="-167.85" y1="448.17" y2="472.17" gradientTransform="matrix(.1531 .20428 -.22872 .07503 -411.14 687.33)" gradientUnits="userSpaceOnUse" xlink:href="#a"/>
  <linearGradient id="x" x1="-554.64" x2="-553.99" y1="359.69" y2="385.93" gradientUnits="userSpaceOnUse" xlink:href="#a"/>
  <linearGradient id="y" x1="-238.4" x2="-167.85" y1="448.17" y2="472.17" gradientTransform="matrix(.19446 .0857 -.07737 .13185 -430.39 615.99)" gradientUnits="userSpaceOnUse" xlink:href="#a"/>
  <linearGradient id="z" x1="-238.4" x2="-167.85" y1="448.17" y2="472.17" gradientTransform="matrix(.19446 .0857 -.07737 .13185 -485.3 56.801)" gradientUnits="userSpaceOnUse" xlink:href="#a"/>
  <linearGradient id="aa" x1="-238.4" x2="-167.85" y1="448.17" y2="472.17" gradientTransform="matrix(.04748 .18519 -.15827 .13348 -712.21 631.11)" gradientUnits="userSpaceOnUse" xlink:href="#a"/>
  <linearGradient id="ab" x1="-238.4" x2="-167.85" y1="448.17" y2="472.17" gradientTransform="matrix(.1205 .21097 -.216 .10446 -464.58 311.44)" gradientUnits="userSpaceOnUse" xlink:href="#a"/>
  <linearGradient id="ac" x1="-238.4" x2="-167.85" y1="448.17" y2="472.17" gradientTransform="matrix(.18414 -.10517 .09117 .18852 -515.25 377.4)" gradientUnits="userSpaceOnUse" xlink:href="#a"/>
  <linearGradient id="ad" x1="-238.4" x2="-167.85" y1="448.17" y2="472.17" gradientTransform="matrix(.09737 .17047 -.17453 .0844 -550.85 571.39)" gradientUnits="userSpaceOnUse" xlink:href="#a"/>
  <linearGradient id="ae" x1="-238.4" x2="-167.85" y1="448.17" y2="472.17" gradientTransform="matrix(.20276 -.05598 -.06885 -.19597 -559.07 382.84)" gradientUnits="userSpaceOnUse" xlink:href="#a"/>
  <linearGradient id="af" x1="-238.4" x2="-167.85" y1="448.17" y2="472.17" gradientTransform="matrix(.09041 .1583 -.16207 .07837 -602.83 440.73)" gradientUnits="userSpaceOnUse" xlink:href="#a"/>
  <linearGradient id="ag" x1="-238.4" x2="-167.85" y1="448.17" y2="472.17" gradientTransform="matrix(.06955 .12177 -.12467 .06029 -313.83 95.209)" gradientUnits="userSpaceOnUse" xlink:href="#a"/>
  <linearGradient id="ah" x1="-238.4" x2="-167.85" y1="448.17" y2="472.17" gradientTransform="matrix(.06955 .12177 -.12467 .06029 -368.15 588.79)" gradientUnits="userSpaceOnUse" xlink:href="#a"/>
  <linearGradient id="ai" x1="-238.4" x2="-167.85" y1="448.17" y2="472.17" gradientTransform="matrix(.07182 .12574 -.12873 .06225 -357.71 160.26)" gradientUnits="userSpaceOnUse" xlink:href="#a"/>
  <radialGradient id="i" cx="-596.36" cy="904.47" r="50.498" gradientTransform="matrix(1 0 0 3.881 250.59 -2420.7)" gradientUnits="userSpaceOnUse">
   <stop stop-color="#e7d7a9" offset="0"/>
   <stop stop-color="#ead1b5" offset="1"/>
  </radialGradient>
 </defs>
 <g transform="matrix(.37966 0 0 .37966 335.92 10.632)">
  <path transform="rotate(22.417)" d="m-345.58 893.51h13.615a43.691 43.691 0 0 1 43.691 43.691v304.58a43.691 43.691 0 0 1 -43.691 43.691h-13.615a43.691 43.691 0 0 1 -43.691 -43.691v-304.58a43.691 43.691 0 0 1 43.691 -43.691" fill="#a17000"/>
  <path transform="rotate(22.417)" d="m-352.58 893.51h13.615a43.691 43.691 0 0 1 43.691 43.691v304.58a43.691 43.691 0 0 1 -43.691 43.691h-13.615a43.691 43.691 0 0 1 -43.691 -43.691v-304.58a43.691 43.691 0 0 1 43.691 -43.691" fill="url(#i)"/>
  <path d="m-683.09 688.22c-31.227 71.815-61.977 143.83-92.75 215.84-10.546 25.4-21.225 50.771-31.656 76.219-8.4368 20.582-16.75 41.218-25 61.875 0.65516 0.754 1.3215 1.4767 2.0312 2.1876 7.8678-20.064 15.826-40.081 23.906-60.063 10.36-25.619 21.024-51.128 31.531-76.687 31.087-73.228 62.309-146.42 94.25-219.28-0.77244-0.0465-1.5429-0.0886-2.3125-0.0937zm-4.5 0.1875c-0.84696 0.0827-1.6935 0.18079-2.5312 0.3125-30.788 70.839-61.085 141.88-91.438 212.91-10.546 25.4-21.225 50.771-31.656 76.219-7.9635 19.427-15.801 38.91-23.594 58.406 0.56413 0.9257 1.1477 1.8351 1.7812 2.7188 7.491-19.08 15.065-38.12 22.75-57.125 10.36-25.619 21.024-51.128 31.531-76.688 30.732-72.391 61.597-144.71 93.156-216.75zm10.438 0.25c-30.412 70.016-60.378 140.21-90.375 210.41-10.546 25.4-21.225 50.771-31.656 76.219-9.7285 23.733-19.283 47.516-28.781 71.344 0.73116 0.626 1.5034 1.2317 2.2812 1.8125 9.0292-23.101 18.138-46.16 27.438-69.156 10.36-25.619 21.024-51.128 31.531-76.687 30.277-71.319 60.676-142.59 91.75-213.56-0.724-0.14281-1.4627-0.26979-2.1875-0.375zm5.6562 1.2188c-30.565 70.343-60.674 140.88-90.812 211.41-10.546 25.4-21.225 50.771-31.656 76.219-9.9042 24.162-19.582 48.398-29.25 72.656 0.77086 0.4962 1.5654 0.9859 2.375 1.4376 9.1498-23.414 18.387-46.786 27.812-70.094 10.36-25.619 21.024-51.128 31.531-76.688 30.384-71.572 60.904-143.09 92.094-214.31-0.69804-0.23583-1.3919-0.42613-2.0938-0.625zm-24.969 0.34375c-0.92893 0.29262-1.8434 0.61503-2.75 0.96875-28.849 66.519-57.321 133.2-85.812 199.88-10.546 25.4-21.194 50.74-31.625 76.188-8.1939 19.989-16.266 40.03-24.281 60.094 0.42238 1.2648 0.90161 2.4983 1.4375 3.7187 7.8312-19.967 15.709-39.896 23.75-59.781 10.36-25.619 21.055-51.128 31.562-76.687 28.969-68.237 58.046-136.44 87.719-204.38zm30.344 1.5312c-30.616 70.457-60.781 141.11-90.969 211.75-10.546 25.4-21.194 50.771-31.625 76.219-9.9816 24.35-19.788 48.77-29.531 73.219 0.69633 0.3305 1.4039 0.64 2.125 0.9375l0.40625 0.1875c9.1804-23.501 18.447-46.952 27.906-70.344 10.36-25.62 21.024-51.128 31.531-76.688 30.406-71.623 60.944-143.19 92.156-214.47l-2-0.8125zm4.4688 1.8438c-29.663 68.337-58.913 136.84-88.188 205.34-10.546 25.4-21.225 50.771-31.656 76.219-10.869 26.516-21.493 53.124-32.094 79.75l2.5938 1.0938c10.006-25.673 20.107-51.329 30.438-76.875 10.36-25.619 21.024-51.097 31.531-76.656 29.493-69.472 59.11-138.91 89.344-208.06l-1.9688-0.8125zm-43.219 0.3125c-1.0789 0.61169-2.1304 1.2652-3.1562 1.9688-27.498 63.494-54.685 127.16-81.875 190.78-10.546 25.4-21.194 50.74-31.625 76.188-7.2784 17.756-14.431 35.558-21.562 53.375 0.11291 1.8278 0.31746 3.6516 0.65625 5.4374 7.1956-18.306 14.438-36.576 21.812-54.812 10.36-25.619 21.024-51.128 31.531-76.688 27.815-65.521 55.768-131 84.219-196.25zm48.969 2.0625c-29.672 68.356-58.936 136.88-88.219 205.41-10.546 25.4-21.225 50.771-31.656 76.219-10.862 26.498-21.502 53.08-32.094 79.687l2.625 1.0938c9.9998-25.656 20.083-51.284 30.406-76.812 10.36-25.619 20.992-51.097 31.5-76.656 29.502-69.493 59.159-138.95 89.406-208.12l-0.125-0.0625-1.8438-0.75zm5.0938 2.2812c-29.904 68.873-59.37 137.93-88.875 206.97-10.546 25.4-21.225 50.74-31.656 76.187-10.627 25.925-21.038 51.936-31.406 77.969 0.87688 0.3421 1.7719 0.6551 2.6562 0.9375 9.7573-25.018 19.619-50.008 29.688-74.906 10.36-25.619 21.024-51.128 31.531-76.687 29.693-69.944 59.523-139.82 89.969-209.44-0.62203-0.35689-1.2614-0.7021-1.9062-1.0312zm5.8438 3.5625c-29.765 68.564-59.128 137.33-88.5 206.06-10.546 25.4-21.225 50.74-31.656 76.188-10.536 25.704-20.845 51.502-31.125 77.312 0.93434 0.2073 1.8762 0.3558 2.8125 0.5 9.6224-24.658 19.326-49.273 29.25-73.812 10.36-25.619 21.023-51.128 31.531-76.688 29.517-69.53 59.175-139.01 89.438-208.22-0.5706-0.46031-1.1527-0.91003-1.75-1.3438zm-71.375 1.4688c-3.003 3.476-5.5224 7.4777-7.375 11.969l-53.375 129.44c20.093-47.203 40.294-94.361 60.75-141.41zm76.344 2.7188c-29.802 68.646-59.186 137.47-88.594 206.28-10.546 25.4-21.225 50.74-31.656 76.188-10.061 24.544-19.901 49.169-29.719 73.812 0.9758 0.071 1.9348 0.1199 2.9062 0.125 9.1245-23.355 18.349-46.691 27.75-69.937 10.36-25.62 21.024-51.097 31.531-76.656 29.497-69.483 59.138-138.93 89.375-208.09-0.52577-0.57724-1.0349-1.1682-1.5938-1.7188zm5.2812 6.3438c-30.43 70.044-60.428 140.28-90.438 210.5-10.546 25.4-21.194 50.771-31.625 76.219-8.6018 20.984-17.059 42.032-25.469 63.094 1.03-0.1089 2.0469-0.2562 3.0625-0.4374 7.6867-19.59 15.453-39.145 23.344-58.656 10.36-25.619 21.024-51.128 31.531-76.688 30.035-70.749 60.187-141.43 91-211.84-0.44745-0.74114-0.91433-1.4727-1.4062-2.1875zm3.8125 6.8125c-29.778 68.592-59.147 137.36-88.531 206.12-10.546 25.4-21.194 50.771-31.625 76.219-8.0787 19.708-16.033 39.471-23.938 59.25 1.1023-0.3115 2.2082-0.6659 3.2812-1.0625 7.1143-18.099 14.302-36.157 21.594-54.188 10.36-25.619 21.024-51.128 31.531-76.688 29.332-69.094 58.781-138.15 88.844-206.94-0.34191-0.91922-0.75333-1.8246-1.1562-2.7188zm2.7188 7.875c-27.864 64.326-55.391 128.79-82.938 193.25-10.546 25.4-21.194 50.771-31.625 76.219-8.3758 20.433-16.621 40.898-24.812 61.406 1.2474-0.6149 2.4707-1.2983 3.6562-2.0312 7.2681-18.496 14.611-36.95 22.062-55.375 10.36-25.619 21.024-51.128 31.531-76.688 27.365-64.459 54.84-128.9 82.812-193.09-0.18305-1.2393-0.39968-2.4731-0.6875-3.6875zm1.125 11.719c-26.464 61.17-52.653 122.46-78.844 183.75-10.546 25.4-21.194 50.771-31.625 76.219-7.357 17.947-14.606 35.928-21.812 53.937 1.6002-1.2991 3.1161-2.7176 4.5312-4.25 6.0191-15.252 12.071-30.485 18.219-45.687 10.36-25.619 21.024-51.128 31.531-76.688 25.497-60.059 51.062-120.1 77.062-179.94 0.51987-2.4444 0.84154-4.9026 0.9375-7.3438z" fill="#d9a865"/>
  <path d="m-717.06 701.12-29.625 71.812c10.081 6.5973 22.473 14.161 33.281 19.188 13.343 6.2049 39.766 14.57 59.594 20.5l30.469-73.844c0.0775-0.18791 0.14403-0.37417 0.21875-0.5625l-93.938-37.094z" fill="#333" fill-opacity=".58214" filter="url(#ak)"/>
  <path d="m-844.06 671.5 322.35 140.14c-3.928 14.118-17.253 17.767-30.235 17.653-5.5135 6.0183-11.38 12.319-17.503 1.7663-2.9727-3.7377-29.033-15.874-43.45-17.426-32.109-0.81051-55.915-25.107-82.564-39.669-15.926-10.778-35.57-10.488-53.334-15.9-13.161-1.1356-13.939-15.616-23.698-20.627-16.922-7.7559-31.616-5.7867-46.669-18.421-5.5103-9.0673-11.537-15.253-21.306-21.543-3.0786-8.2556-3.4041-17.258-3.5864-25.976z" fill="#eeca97"/>
  <path d="m-578.08 25.438s23.681-5.2845 35.651-4.6718c11.177 0.57214 21.497 8.3633 32.671 7.739 12.499-0.69822 22.904-11.359 35.353-12.673 8.6369-0.91143 17.173 4.2744 25.821 3.4788 8.1167-0.74665 15.138-6.6623 23.232-7.6313 7.145-0.85551 21.521 1.7047 21.521 1.7047l-43.88 108.14-127.42-59.735z" fill="#feeea9"/>
  <path transform="matrix(.93251 .36114 -.36114 .93251 137.98 246.31)" d="m-758.06 768.09c0.71036 1.0991 1.4529 2.1154 2.2188 3.0938 9.937 2.262 18.386 5.918 26.344 11.438 7.0351 2.0299 12.702 1.8381 19.656 0.9375 7.3235-0.94841 15.985-2.8198 26.719-2.4062a10.146 10.146 0 0 1 0.46875 0c9.3136 0.77633 15.068 5.9747 18.906 8.4375s4.1755 2.9112 6.9688 2.0312a10.146 10.146 0 0 1 2.0938 -0.40625c16.068-1.5391 35.146-9.8747 57.438-5.625v-0.0312c32.382 3.5394 61.384 15.523 86.719 5.8125a10.146 10.146 0 0 1 0.78125 -0.28125c9.0411-2.6386 20.008-3.1149 30.031-3 5.0115 0.0574 9.6859 0.3161 13.625 0.75 3.8744 0.42678 5.8867-0.0422 10.719 2.5938 0.42758-0.89318 0.8221-1.6418 1.25-2.8125a10.146 10.146 0 0 1 5.75 -5.9375c5.1134-2.0572 9.5009-4.8075 11.969-7.5938 0.27377-0.30908 0.48037-0.60589 0.71875-0.90625l-322.38-6.0938z" fill="#feeea9" filter="url(#au)"/>
  <path transform="matrix(.92444 .38134 -.38134 .92444 161.1 266.59)" d="m-623.47-8.3125c-6.4676 21.452-15.873 36.031-26.531 39.062-0.23407 9.656-8.9588 17.406-19.688 17.406-2.085 0-4.114-0.26922-6-0.8125-1.3987 6.1843-7.4388 10.812-14.688 10.812-1.9654 0-3.8424-0.34694-5.5625-0.96875-2.6956 3.61-7.2598 5.9688-12.438 5.9688-3.2995 0-6.3671-0.96023-8.8438-2.5938-2.6735 2.233-6.2308 3.5938-10.156 3.5938-6.24 0-11.615-3.4392-13.875-8.3438-4.3566 3.3394-9.9679 5.3438-16.125 5.3438-6.9036 0-8.1634 1.4619-12.688-2.625-1.78 4.8236-3.2987 9.8029-4.5625 14.906l25.438 9.2812 95.156-17.5 45.938-68.906z" fill="#eeca97" filter="url(#al)"/>
  <path transform="matrix(.92444 .38134 -.38134 .92444 161.1 266.59)" d="m-452.65 752.92-9.4702 32.305-7.0349 9.8488h14.773l26.733-18.994z" fill="#d58f5e" filter="url(#at)"/>
  <path d="m-404.58 13.131c-17.05 25.085-35.373 40.184-48.832 38.642-3.8986 8.8371-14.92 12.675-24.838 8.5833-1.9275-0.7951-3.7004-1.8177-5.2368-3.0391-3.6513 5.1836-11 7.1588-17.701 4.3945-1.8169-0.74949-3.4198-1.786-4.7728-3.0167-3.8686 2.3093-8.9874 2.7493-13.774 0.77482-3.0502-1.2582-5.5198-3.3157-7.1864-5.7702-3.323 1.0448-7.1304 0.94613-10.759-0.55078-5.7685-2.3796-9.4254-7.6084-9.6448-13.004-5.3009 1.4257-11.252 1.1388-16.944-1.2091-6.3819-2.6326-11.201-7.366-13.825-12.869-10.838 11.756-20.008 25.767-26.737 41.706 0 0-256.24 601.29-254.87 603.67s4.324 5.6513 8.6611 9.4886 16.037 4.2385 22.948 9.0268 9.025 13.93 18.121 19.171 19.202 10.599 30.095 15.795c27.013 12.885 62.485 16.302 95.46 25.823 13.666 3.9457 28.113 15.182 43.721 22.835s32.356 11.731 44.541 16.176c26.605 9.705 30.955 21.396 49.579 27.483s37.838 3.0625 43.505 1.3144 244.87-607.8 244.87-607.8c26.268-65.201 2.0422-136.4-55.53-160.15l-90.855-37.478z" fill="url(#aj)"/>
  <path transform="matrix(.92444 .38134 -.38134 .92444 161.1 266.59)" d="m-526.3125,56.0625c-.58587.0028-1.25497.44236-1.6875,1.15625-.57672.95188-.50129,2.03911.15625,2.4375s1.64203-.04812 2.21875-1 .53253-2.03912-.125-2.4375c-.16439-.0996-.36721-.15717-.5625-.15625zm23.40625,2.25c-.55316-.0058-1.06341.25603-1.34375.71875-.44855.74034-.12666,1.73779.71875,2.25s1.89519.3341 2.34375-.40625 .12664-1.76905-.71875-2.28125c-.31703-.19208-.66811-.27777-1-.28125zm37.34375,8.9375c-.55317-.0058-1.0634.22478-1.34375.6875-.4486.74041-.12665,1.76904.71875,2.28125s1.89514.30292 2.34375-.4375 .12665-1.7378-.71875-2.25c-.31703-.19208-.6681-.27778-1-.28125zm-128.125.90625c-.70644-.04443-1.45633.55161-1.75,1.4375-.33561,1.01244.0562,2.05145.84375,2.3125s1.69563-.36256 2.03125-1.375-.0563-2.05147-.84375-2.3125c-.0984-.03263-.18033-.05615-.28125-.0625zm-36.65625,6.9375c-.72975-.0017-1.36672.3469-1.5625.9375-.26103.78746.36251,1.69562 1.375,2.03125s2.02021-.02502 2.28125-.8125-.33125-1.69562-1.34375-2.03125c-.25312-.08391-.50675-.12445-.75-.125zm134.125,12.15625c-.58586.0028-1.25494.4423-1.6875,1.15625-.57675.95193-.50127,2.03912.15625,2.4375s1.642-.04807 2.21875-1 .53254-2.03911-.125-2.4375c-.16438-.09959-.36721-.15717-.5625-.15625zm-120.84375,14.84375c-.60403.10867-1.18579.64691-1.4375,1.40625-.33562,1.01245.0251,2.05147.8125,2.3125s1.69563-.36255 2.03125-1.375-.0251-2.05147-.8125-2.3125c-.19686-.0653-.39241-.0675-.59375-.0312zm-17.4375,19.25c-.72974-.002-1.36673.37815-1.5625.96875-.26104.78746.36257,1.69564 1.375,2.03125s2.05146-.0563 2.3125-.84375-.36257-1.69564-1.375-2.03125c-.25311-.0839-.50675-.12445-.75-.125zm-60.90625,21.1875c-.70644-.0444-1.45633.55161-1.75,1.4375-.33561,1.01244.0562,2.0202.84375,2.28125s1.69563-.33131 2.03125-1.34375-.0251-2.05147-.8125-2.3125c-.0984-.0326-.21158-.0562-.3125-.0625zm143.46875,5.96875c-.11773.0123-.22504.0282-.34375.0625-.94967.27422-1.5214,1.16835-1.28125,2s1.20658,1.30547 2.15625,1.03125 1.52142-1.16827 1.28125-2c-.21012-.7277-.98838-1.17957-1.8125-1.09375zm-180.125.96875c-.72975-.002-1.36672.3469-1.5625.9375-.26103.78746.36251,1.69562 1.375,2.03125s2.05146-.025 2.3125-.8125-.3625-1.69562-1.375-2.03125c-.25312-.0839-.50675-.12445-.75-.125zm148.25,20.4375c-.11773.0123-.22504.0282-.34375.0625-.94968.27423-1.52139,1.16835-1.28125,2s1.20658,1.27422 2.15625,1 1.5214-1.16834 1.28125-2c-.21012-.72769-.98839-1.14833-1.8125-1.0625zm84.78125,3.84375c-.86565,0-1.23511.79279-.8125,1.78125s1.47812,1.78125 2.34375,1.78125 1.20387-.79278.78125-1.78125-1.44678-1.78125-2.3125-1.78125zm-219.75,2.71875c-.60403.10867-1.18579.64691-1.4375,1.40625-.33562,1.01245.0251,2.05147.8125,2.3125s1.72688-.36255 2.0625-1.375-.0563-2.05147-.84375-2.3125c-.19686-.0653-.39241-.0675-.59375-.0312zm160.28125,8.40625c-.0945-.00065-.18892.005-.28125.0312-.73857.21328-1.05877,1.24317-.75,2.3125s1.13638,1.77578 1.875,1.5625 1.09002-1.24317.78125-2.3125c-.27018-.93567-.96342-1.58919-1.625-1.59375zm-43.3125.96875c-.0945-.00065-.18892.005-.28125.0312-.73868.21328-1.09001,1.27449-.78125,2.34375s1.16762,1.74454 1.90625,1.53125 1.05876-1.24323.75-2.3125c-.27016-.93559-.93218-1.58917-1.59375-1.59375zm143.46875,4.59375c-1.11302,0-1.73495.63744-1.40625,1.40625s1.48073,1.375 2.59375,1.375 1.7662-.60621 1.4375-1.375-1.51198-1.40625-2.625-1.40625zm-277.875,5.28125c-.72974-.002-1.33548.3469-1.53125.9375-.26104.78746.33132,1.72689 1.34375,2.0625s2.05146-.0563 2.3125-.84375-.36257-1.69564-1.375-2.03125c-.25311-.0839-.50675-.12445-.75-.125zm264.53125,14.5625c-.86565,0-1.23511.82405-.8125,1.8125s1.47812,1.78125 2.34375,1.78125 1.20386-.79278.78125-1.78125-1.44687-1.8125-2.3125-1.8125zm20.1875,22.0625c-1.11293,0-1.73495.63745-1.40625,1.40625s1.48082,1.375 2.59375,1.375 1.7662-.60619 1.4375-1.375-1.51204-1.40625-2.625-1.40625zm-190.40625,24.0625c-.98846,0-1.78125.69687-1.78125,1.5625s.79279,1.5625 1.78125,1.5625 1.8125-.69679 1.8125-1.5625-.82404-1.5625-1.8125-1.5625zm-36.5625,11.71875c-.98846,0-1.78125.69687-1.78125,1.5625s.79279,1.5625 1.78125,1.5625 1.8125-.69687 1.8125-1.5625-.82405-1.5625-1.8125-1.5625zm-21.65625,10.3125c-.7688,0-1.375.88706-1.375,2s.6062,2.03125 1.375,2.03125 1.40625-.9183 1.40625-2.03125-.63745-2-1.40625-2zm154.625,9.65625c-1.11298,0-2.03125.72812-2.03125,1.59375s.91827,1.5625 2.03125,1.5625 2-.69679 2-1.5625-.88703-1.59375-2-1.59375zm-112.71875,1.40625c-.7688,0-1.375.91823-1.375,2.03125s.6062,2 1.375,2 1.40625-.88698 1.40625-2-.63745-2.03125-1.40625-2.03125zm153.875,10.3125c-1.11296,0-2.03125.69687-2.03125,1.5625s.91828,1.59375 2.03125,1.59375 2-.72812 2-1.59375-.88702-1.5625-2-1.5625zm24.375,10.34375c-.86564,0-1.5625.88706-1.5625,2s.69686,2 1.5625,2 1.5625-.88705 1.5625-2-.69686-2-1.5625-2zm-47.1875,11.0625c-.86566,0-1.5625.91823-1.5625,2.03125s.69684,2 1.5625,2 1.5625-.88698 1.5625-2-.69686-2.03125-1.5625-2.03125zm-175.375,41.46875c-.22818-.009-.4526.0482-.6875.125-.93958.30697-1.48758,1.20843-1.21875,2.03125s1.24792,1.24448 2.1875.9375 1.48761-1.23959 1.21875-2.0625c-.20162-.61711-.81546-1.00455-1.5-1.03125zm131.15625,3.21875c-.82967,0-1.5.87087-1.5,1.9375s.67033,1.9375 1.5,1.9375 1.5-.87088 1.5-1.9375-.67042-1.9375-1.5-1.9375zm-32.1875,18.03125c-1.06667,0-1.90625.6704-1.90625,1.5s.83958,1.5 1.90625,1.5 1.9375-.6704 1.9375-1.5-.87082-1.5-1.9375-1.5zm-130.09375,1.25c-.22818-.009-.45261.017-.6875.0937-.93959.30698-1.48758,1.23968-1.21875,2.0625s1.24792,1.24448 2.1875.9375 1.48758-1.23967 1.21875-2.0625c-.20162-.61711-.81547-1.00457-1.5-1.03125zm25.5,14.09375c-.0945.003-.1899.0326-.28125.0625-.73079.23876-1.06441,1.28576-.71875,2.34375s1.23797,1.70751 1.96875,1.46875 1.03316-1.28577.6875-2.34375c-.30245-.92574-.99492-1.54962-1.65625-1.53125zm258.875,1.90625c-.20405.0147-.38791.0756-.5625.1875-.69842.44783-.79449,1.53959-.21875,2.4375s1.61407,1.26033 2.3125.8125 .79448-1.53961.21875-2.4375c-.4318-.67343-1.13786-1.04419-1.75-1zm-302.15625.59375c-.0945.003-.1899.001-.28125.0312-.73079.23876-1.03314,1.28584-.6875,2.34375s1.20671,1.73876 1.9375,1.5 1.03314-1.28583.6875-2.34375c-.30244-.92567-.99492-1.54961-1.65625-1.53125zm168.8125,3.59375c-.82959,0-1.5.87088-1.5,1.9375s.67041,1.90625 1.5,1.90625 1.53125-.83962 1.53125-1.90625-.70166-1.9375-1.53125-1.9375zm-10.3125,23.78125c-1.0666,0-1.9375.67041-1.9375,1.5s.8709,1.5 1.9375,1.5 1.9375-.6704 1.9375-1.5-.8709-1.5-1.9375-1.5zm126.78125,4.375c-.34692.03-.69452.15909-1.03125.375-.89793.57575-1.2603,1.61413-.8125,2.3125s1.53957.79451 2.4375.21875 1.26029-1.61413.8125-2.3125c-.27988-.43648-.82805-.6438-1.40625-.59375zm28.71875,6.90625c-.20404.0147-.38791.0756-.5625.1875-.69836.44779-.79448,1.5396-.21875,2.4375s1.61414,1.26029 2.3125.8125 .79448-1.5396.21875-2.4375c-.4318-.67342-1.13788-1.04418-1.75-1zm4.65625,25.4375c-.34692.03-.7258.12785-1.0625.34375-.89788.57572-1.26029,1.61414-.8125,2.3125s1.53962.79447 2.4375.21875 1.26029-1.58289.8125-2.28125c-.27987-.43647-.7968-.6438-1.375-.59375zm-258.96875,12.34375c-1.11296,0-2,.63744-2,1.40625s.88705,1.375 2,1.375 2.03125-.60619 2.03125-1.375-.91832-1.40625-2.03125-1.40625zm10.78125,21.28125c-.86563,0-1.59375.79278-1.59375,1.78125s.72812,1.78125 1.59375,1.78125 1.5625-.7928 1.5625-1.78125-.69687-1.78125-1.5625-1.78125zm143.1875,10.8125c-.86563,0-1.5625.79279-1.5625,1.78125s.69687,1.8125 1.5625,1.8125 1.5625-.82404 1.5625-1.8125-.69679-1.78125-1.5625-1.78125zm-165.0625,9.8125c-1.11302,0-2,.63747-2,1.40625s.88698,1.375 2,1.375 2.03125-.60618 2.03125-1.375-.91823-1.40625-2.03125-1.40625zm198.21875,6.90625c-.91834.12981-1.59375.7023-1.59375,1.375 0,.7688.88698,1.40625 2,1.40625s2.03125-.63745 2.03125-1.40625-.91823-1.375-2.03125-1.375c-.13913,0-.27506-.0185-.40625,0zm-164.65625,9c-.86572,0-1.5625.82403-1.5625,1.8125s.69678,1.78125 1.5625,1.78125 1.59375-.79278 1.59375-1.78125-.72812-1.8125-1.59375-1.8125zm143.21875,10.84375c-.86563,0-1.5625.7928-1.5625,1.78125s.69687,1.78125 1.5625,1.78125 1.5625-.79279 1.5625-1.78125-.69687-1.78125-1.5625-1.78125zm10.375,22.0625c-.9183.12981-1.625.7023-1.625,1.375 0,.7688.91831,1.40625 2.03125,1.40625s2-.63745 2-1.40625-.88705-1.375-2-1.375c-.13912,0-.27506-.0185-.40625,0zm-209.25,49.65625c-.86563,0-1.5625.79279-1.5625,1.78125s.69687,1.78125 1.5625,1.78125 1.5625-.79279 1.5625-1.78125-.69679-1.78125-1.5625-1.78125zm33.5625,16.6875c-1.11302,0-2,.63745-2,1.40625s.88698,1.375 2,1.375 2.03125-.6062 2.03125-1.375-.91823-1.40625-2.03125-1.40625zm168.84375,15.9375c-1.11298,0-2.03125.69687-2.03125,1.5625s.91827,1.5625 2.03125,1.5625 2-.69679 2-1.5625-.88703-1.5625-2-1.5625zm-190.6875,3.9375c-.86563,0-1.5625.7928-1.5625,1.78125s.69687,1.78125 1.5625,1.78125 1.5625-.79279 1.5625-1.78125-.69687-1.78125-1.5625-1.78125zm231.84375,7.78125c-1.11296,0-2.03125.69687-2.03125,1.5625s.91828,1.5625 2.03125,1.5625 2-.69687 2-1.5625-.88702-1.5625-2-1.5625zm24.375,10.3125c-.86564,0-1.5625.91831-1.5625,2.03125s.69686,2 1.5625,2 1.5625-.88705 1.5625-2-.69686-2.03125-1.5625-2.03125zm-245.4375,3.9375c-1.11294,0-2.03125.63745-2.03125,1.40625s.91831,1.375 2.03125,1.375 2-.6062 2-1.375-.88705-1.40625-2-1.40625zm198.25,7.15625c-.86566,0-1.5625.88698-1.5625,2s.69684,2.03125 1.5625,2.03125 1.5625-.91823 1.5625-2.03125-.69686-2-1.5625-2z" fill="#a15a2c" filter="url(#h)"/>
  <path transform="matrix(.92444 .38134 -.38134 .92444 -8.3425 157.13)" d="m-316.44 98.713c-2.4728 0.38042-6.048 1.9631-8.1011 4.1734-1.4822 2.1133-0.26721 5.825-2.3344 7.5157-2.1568 1.6907-5.7428 0.49022-7.4651 2.9105-1.3678 1.9898-2.4093 4.8642-1.1937 7.6615 1.7935 3.4856 5.5209 5.6108 8.8111 5.7022 2.689 0.11472 4.1192-2.4821 5.0986-4.7364 1.2187-2.5459 2.5664-4.7018 4.9997-6.1058 2.5183 0.36795 5.1018 3.9985 7.8079 5.8102 1.6882 0.68913 3.1935-0.43734 4.2183-1.5525 1.6756-2.0006 2.7185-5.0469 1.7774-8.1054-4.4612-9.624-10.336-13.157-13.619-13.273z" fill="#1a1a1a" filter="url(#f)" opacity=".5"/>
  <path d="m-338.74 126.42c-2.431-0.59132-6.3396-0.49157-9.0804 0.76874-2.176 1.3884-2.4683 5.283-5.024 6.0576-2.6385 0.74046-5.4958-1.7368-8.0109-0.15618-2.0232 1.3178-4.0822 3.5779-4.0251 6.6273 0.32874 3.9061 2.9641 7.2922 5.9709 8.6313 2.442 1.1315 4.7544-0.72374 6.5196-2.4342 2.0975-1.8888 4.1654-3.3679 6.9503-3.7378 2.1877 1.3005 3.1915 5.6419 5.0022 8.3486 1.2978 1.2808 3.119 0.81351 4.4916 0.17346 2.3119-1.2104 4.4376-3.6288 4.734-6.8151-0.45406-10.598-4.5382-16.104-7.528-17.464z" fill="url(#j)"/>
  <path transform="matrix(.92444 .38134 -.38134 .92444 -8.3425 157.13)" d="m-311.33 115.91-5.6279-4.2209 3.5174-1.0552 3.8692 2.4622z" fill="#955227" filter="url(#b)"/>
  <path transform="matrix(.92444 .38134 -.38134 .92444 -8.3425 157.13)" d="m-325.33 121.91-5.6279-4.2209 3.5174-1.0552 3.8692 2.4622z" fill="#955227" filter="url(#b)"/>
  <path transform="matrix(.92444 .38134 -.38134 .92444 -8.3425 157.13)" d="m-312.95 103.25 7.4616 10.446 0.49744-1.2436-2.7359-5.9693z" fill="#fff" filter="url(#e)" opacity=".39465"/>
  <path transform="matrix(.92444 .38134 -.38134 .92444 -8.3425 157.13)" d="m-335.34 117.93 1.741 3.4821 2.9846 1.741h4.2283l-3.4821-2.7359-2.4872-0.49744z" fill="#fff" filter="url(#d)" opacity=".39465"/>
  <path transform="matrix(.76413 -.64506 .64506 .76413 -410.42 -166.25)" d="m-316.44 158.71c-2.4728 0.38042-6.048 1.9631-8.1011 4.1734-1.4822 2.1133-0.26721 5.825-2.3344 7.5157-2.1568 1.6907-5.7428 0.49022-7.4651 2.9105-1.3678 1.9898-2.4093 4.8642-1.1937 7.6615 1.7935 3.4856 5.5209 5.6108 8.8111 5.7022 2.689 0.11472 4.1192-2.4821 5.0986-4.7364 1.2187-2.5459 2.5664-4.7018 4.9997-6.1058 2.5183 0.36795 5.1018 3.9985 7.8079 5.8102 1.6882 0.68913 3.1935-0.43734 4.2183-1.5525 1.6756-2.0006 2.7185-5.0469 1.7774-8.1054-4.4612-9.624-10.336-13.157-13.619-13.273z" fill="#1a1a1a" filter="url(#f)" opacity=".5"/>
  <path d="m-548.86 158.59c-1.6442 1.8858-3.3552 5.4014-3.4983 8.4147 0.23065 2.5709 3.5533 4.6235 3.0643 7.2488-0.55747 2.6831-4.072 4.079-3.8269 7.0394 0.23835 2.4028 1.2966 5.271 4.03 6.6244 3.6189 1.5066 7.838 0.72614 10.411-1.3265 2.1287-1.6469 1.5465-4.5537 0.8408-6.9082-0.71099-2.7315-1.0719-5.2483-0.11813-7.8907 2.1617-1.3433 6.4778-0.23556 9.7142-0.59677 1.7345-0.56238 2.1581-2.3942 2.2219-3.9074-0.0101-2.6096-1.1782-5.6101-3.8702-7.3402-9.617-4.4763-16.385-3.386-18.969-1.3577z" fill="url(#k)"/>
  <path transform="matrix(.76413 -.64506 .64506 .76413 -408.19 -166.41)" d="m-311.33 175.91-5.6279-4.2209 3.5174-1.0552 3.8692 2.4622z" fill="#955227" filter="url(#b)"/>
  <path transform="matrix(.76413 -.64506 .64506 .76413 -408.19 -166.41)" d="m-325.33 181.91-5.6279-4.2209 3.5174-1.0552 3.8692 2.4622z" fill="#955227" filter="url(#b)"/>
  <path transform="matrix(.76413 -.64506 .64506 .76413 -408.19 -166.41)" d="m-312.95 163.25 7.4616 10.446 0.49744-1.2436-2.7359-5.9693z" fill="#fff" filter="url(#e)" opacity=".39465"/>
  <path transform="matrix(.76413 -.64506 .64506 .76413 -408.19 -166.41)" d="m-335.34 177.93 1.741 3.4821 2.9846 1.741h4.2283l-3.4821-2.7359-2.4872-0.49744z" fill="#fff" filter="url(#d)" opacity=".39465"/>
  <path transform="matrix(.92444 .38134 -.38134 .92444 -118.43 208.43)" d="m-263.17 185.73c1.3223 2.557 4.0217 3.6158 6.5645 4.5682 2.2305 0.36769 4.5544-3.2976 6.7068-2.0081 2.1897 1.3905 2.7709 8.1812 5.3358 8.6304 2.0886 0.3149 4.7157-0.28522 6.3418-3.3862 1.9099-4.1787 1.9751-9.7005 0.6714-13.472-1.0349-3.107-3.6125-3.1172-5.7407-2.8303-2.4505 0.19706-4.6574 8e-3 -6.7439-1.8724-0.77049-3.0708 0.92027-8.2311 1.1726-12.406-0.17903-2.3319-1.6665-3.3355-2.9448-3.8036-2.2253-0.65579-4.984 0.049-6.924 3.0014-6.2117 8.7838-2.5177 19.622-4.4394 23.578z" fill="#1a1a1a" filter="url(#g)" opacity=".5"/>
  <path d="m-432 278.47c0.2473 2.868 2.339 4.8762 4.3264 6.7263 1.9218 1.1905 5.4677-1.3116 6.9658 0.70115 1.494 2.1205-0.55828 8.6197 1.6415 10.013 1.8107 1.0876 4.4681 1.5346 7.1539-0.71195 3.3591-3.1346 5.525-8.2143 5.758-12.198 0.22814-3.2669-2.1508-4.2593-4.2276-4.8056-2.3404-0.7523-4.3085-1.7686-5.5202-4.3026 0.45874-3.1326 3.9896-7.2582 5.8148-11.021 0.72374-2.224-0.26863-3.719-1.2718-4.6392-1.8071-1.4548-4.6261-1.8553-7.5454 0.13421-9.0919 5.7513-9.8099 17.179-13.095 20.104z" fill="url(#l)"/>
  <path transform="matrix(-.10927 -.99401 .99401 -.10927 -621.05 -25.033)" d="m-311.33 175.91-5.6279-4.2209 3.5174-1.0552 3.8692 2.4622z" fill="#955227" filter="url(#b)"/>
  <path transform="matrix(-.10927 -.99401 .99401 -.10927 -627.58 -22.317)" d="m-325.33 181.91-5.6279-4.2209 3.5174-1.0552 3.8692 2.4622z" fill="#955227" filter="url(#b)"/>
  <path transform="matrix(-.10927 -.99401 .99401 -.10927 -621.05 -25.033)" d="m-312.95 163.25 7.4616 10.446 0.49744-1.2436-2.7359-5.9693z" fill="#fff" filter="url(#e)" opacity=".39465"/>
  <path transform="matrix(-.10927 -.99401 .99401 -.10927 -627.58 -22.317)" d="m-335.34 177.93 1.741 3.4821 2.9846 1.741h4.2283l-3.4821-2.7359-2.4872-0.49744z" fill="#fff" filter="url(#d)" opacity=".39465"/>
  <path transform="matrix(.02635 -.93807 .7462 -.21149 -752.59 214.07)" d="m-316.44 158.71c-2.4728 0.38042-6.048 1.9631-8.1011 4.1734-1.4822 2.1133-0.26721 5.825-2.3344 7.5157-2.1568 1.6907-5.7428 0.49022-7.4651 2.9105-1.3678 1.9898-2.4093 4.8642-1.1937 7.6615 1.7935 3.4856 5.5209 5.6108 8.8111 5.7022 2.689 0.11472 4.1192-2.4821 5.0986-4.7364 1.2187-2.5459 2.5664-4.7018 4.9997-6.1058 2.5183 0.36795 5.1018 3.9985 7.8079 5.8102 1.6882 0.68913 3.1935-0.43734 4.2183-1.5525 1.6756-2.0006 2.7185-5.0469 1.7774-8.1054-4.4612-9.624-10.336-13.157-13.619-13.273z" fill="#1a1a1a" filter="url(#f)" opacity=".5"/>
  <path d="m-642.32 476.26c0.21872 2.2393 1.3055 5.2583 2.9007 6.7168 1.5379 0.94343 4.3396-0.98127 5.5467 0.60035 1.2048 1.6656 0.21449 5.2835 1.9751 6.3873 1.4488 0.86227 3.5662 1.2314 5.6856-0.50056 2.6482-2.4196 4.3323-6.3656 4.4871-9.4714 0.15645-2.5467-1.7436-3.3391-3.4-3.7812-1.8676-0.60481-3.4409-1.4129-4.4244-3.3988 0.34093-2.4402 3.1181-5.6315 4.5413-8.5532 0.55871-1.7294-0.24221-2.9032-1.0473-3.6288-1.4487-1.1488-3.6944-1.4828-6.0014 0.0469-7.299 6.2203-10.09 12.479-10.263 15.583z" fill="url(#m)"/>
  <path transform="matrix(.02635 -.93807 .7462 -.21149 -751.56 212.09)" d="m-311.33 175.91-5.6279-4.2209 3.5174-1.0552 3.8692 2.4622z" fill="#955227" filter="url(#b)"/>
  <path transform="matrix(.02635 -.93807 .7462 -.21149 -751.56 212.09)" d="m-325.33 181.91-5.6279-4.2209 3.5174-1.0552 3.8692 2.4622z" fill="#955227" filter="url(#b)"/>
  <path transform="matrix(.02635 -.93807 .7462 -.21149 -751.56 212.09)" d="m-312.95 163.25 7.4616 10.446 0.49744-1.2436-2.7359-5.9693z" fill="#fff" filter="url(#e)" opacity=".39465"/>
  <path transform="matrix(.02635 -.93807 .7462 -.21149 -751.56 212.09)" d="m-335.34 177.93 1.741 3.4821 2.9846 1.741h4.2283l-3.4821-2.7359-2.4872-0.49744z" fill="#fff" filter="url(#d)" opacity=".39465"/>
  <path transform="matrix(-.10927 -.99401 .99401 -.10927 -867.25 358.63)" d="m-316.44 158.71c-2.4728 0.38042-6.048 1.9631-8.1011 4.1734-1.4822 2.1133-0.26721 5.825-2.3344 7.5157-2.1568 1.6907-5.7428 0.49022-7.4651 2.9105-1.3678 1.9898-2.4093 4.8642-1.1937 7.6615 1.7935 3.4856 5.5209 5.6108 8.8111 5.7022 2.689 0.11472 4.1192-2.4821 5.0986-4.7364 1.2187-2.5459 2.5664-4.7018 4.9997-6.1058 2.5183 0.36795 5.1018 3.9985 7.8079 5.8102 1.6882 0.68913 3.1935-0.43734 4.2183-1.5525 1.6756-2.0006 2.7185-5.0469 1.7774-8.1054-4.4612-9.624-10.336-13.157-13.619-13.273z" fill="#1a1a1a" filter="url(#f)" opacity=".5"/>
  <path d="m-674.83 654.71c0.64833 2.4165 2.6122 5.7973 5.0336 7.5966 2.2626 1.2424 5.8194-0.37087 7.7258 1.4992 1.9162 1.9591 1.1148 5.6549 3.7088 7.1024 2.1274 1.1422 5.0983 1.8634 7.746 0.34941 3.2688-2.1636 4.974-6.1009 4.7053-9.3814-0.17979-2.6854-2.9173-3.8233-5.2652-4.5506-2.6638-0.93324-4.9541-2.0371-6.6155-4.3026 0.0906-2.5434 3.4171-5.5082 4.9223-8.396 0.50054-1.7534-0.78367-3.1266-2.0041-4.0234-2.1717-1.447-5.3137-2.1507-8.2511-0.88114-9.0789 5.486-11.949 11.712-11.706 14.988z" fill="url(#n)"/>
  <path transform="matrix(-.10927 -.99401 .99401 -.10927 -866.14 356.69)" d="m-311.33 175.91-5.6279-4.2209 3.5174-1.0552 3.8692 2.4622z" fill="#955227" filter="url(#b)"/>
  <path transform="matrix(-.10927 -.99401 .99401 -.10927 -866.14 356.69)" d="m-325.33 181.91-5.6279-4.2209 3.5174-1.0552 3.8692 2.4622z" fill="#955227" filter="url(#b)"/>
  <path transform="matrix(-.10927 -.99401 .99401 -.10927 -866.14 356.69)" d="m-312.95 163.25 7.4616 10.446 0.49744-1.2436-2.7359-5.9693z" fill="#fff" filter="url(#e)" opacity=".39465"/>
  <path transform="matrix(-.10927 -.99401 .99401 -.10927 -866.14 356.69)" d="m-335.34 177.93 1.741 3.4821 2.9846 1.741h4.2283l-3.4821-2.7359-2.4872-0.49744z" fill="#fff" filter="url(#d)" opacity=".39465"/>
  <path transform="matrix(.55054 -.11842 .11842 .55054 -388.88 387.81)" d="m-263.17 242.73c1.3223 2.557 4.0217 3.6158 6.5645 4.5682 2.2305 0.36769 4.5544-3.2976 6.7068-2.0081 2.1897 1.3905 2.7709 8.1812 5.3358 8.6304 2.0886 0.3149 4.7157-0.28522 6.3418-3.3862 1.9099-4.1787 1.9751-9.7005 0.6714-13.472-1.0349-3.107-3.6125-3.1172-5.7407-2.8303-2.4505 0.19706-4.6574 8e-3 -6.7439-1.8724-0.77049-3.0708 0.92027-8.2311 1.1726-12.406-0.17903-2.3319-1.6665-3.3355-2.9448-3.8036-2.2253-0.65579-4.984 0.049-6.924 3.0014-6.2117 8.7838-2.5177 19.622-4.4394 23.578z" fill="#1a1a1a" filter="url(#g)" opacity=".5"/>
  <path d="m-505.19 551.83c1.0308 1.2512 2.6423 1.5144 4.155 1.7376 1.2715-0.0617 2.1169-2.3548 3.4546-1.8998 1.3702 0.50623 2.4944 4.176 3.9596 4.1196 1.1871-0.074 2.5624-0.71546 3.0904-2.6153 0.55664-2.5268-0.0614-5.5744-1.2258-7.4964-0.93769-1.588-2.358-1.2884-3.4957-0.87835-1.3258 0.39868-2.5631 0.55594-3.9345-0.23221-0.78784-1.5994-0.4681-4.6406-0.8236-6.9689-0.37472-1.2626-1.3125-1.639-2.0717-1.7453-1.3028-0.0975-2.7381 0.6172-3.4565 2.4724-2.3796 5.5715 0.93756 11.101 0.34815 13.507z" fill="url(#o)"/>
  <path transform="matrix(-.36818 -.4261 .4261 -.36818 -689.81 471.46)" d="m-311.33 175.91-5.6279-4.2209 3.5174-1.0552 3.8692 2.4622z" fill="#955227" filter="url(#b)"/>
  <path transform="matrix(-.36818 -.4261 .4261 -.36818 -691.98 474.8)" d="m-325.33 181.91-5.6279-4.2209 3.5174-1.0552 3.8692 2.4622z" fill="#955227" filter="url(#b)"/>
  <path transform="matrix(-.36818 -.4261 .4261 -.36818 -689.81 471.46)" d="m-312.95 163.25 7.4616 10.446 0.49744-1.2436-2.7359-5.9693z" fill="#fff" filter="url(#e)" opacity=".39465"/>
  <path transform="matrix(-.36818 -.4261 .4261 -.36818 -691.98 474.8)" d="m-335.34 177.93 1.741 3.4821 2.9846 1.741h4.2283l-3.4821-2.7359-2.4872-0.49744z" fill="#fff" filter="url(#d)" opacity=".39465"/>
  <path transform="matrix(1.1408 -.23126 .28275 1.1082 -189.15 72.035)" d="m-263.17 249.73c1.3223 2.557 4.0217 3.6158 6.5645 4.5682 2.2305 0.36769 4.5544-3.2976 6.7068-2.0081 2.1897 1.3905 2.7709 8.1812 5.3358 8.6304 2.0886 0.3149 4.7157-0.28522 6.3418-3.3862 1.9099-4.1787 1.9751-9.7005 0.6714-13.472-1.0349-3.107-3.6125-3.1172-5.7407-2.8303-2.4505 0.19706-4.6574 8e-3 -6.7439-1.8724-0.77049-3.0708 0.92027-8.2311 1.1726-12.406-0.17903-2.3319-1.6665-3.3355-2.9448-3.8036-2.2253-0.65579-4.984 0.049-6.924 3.0014-6.2117 8.7838-2.5177 19.622-4.4394 23.578z" fill="#1a1a1a" filter="url(#g)" opacity=".5"/>
  <path d="m-419.15 408.1c2.2314 2.528 5.6102 3.077 8.7803 3.5446 2.6485-0.10835 4.2632-4.7077 7.0831-3.7765 2.8912 1.0346 5.4742 8.4259 8.5272 8.3306 2.4716-0.13403 5.2989-1.4066 6.2771-5.2193 0.99727-5.0727-0.4897-11.207-3.0433-15.085-2.0591-3.2039-5.0024-2.6192-7.3491-1.809-2.7397 0.7851-5.3107 1.086-8.2226-0.51545-1.7472-3.225-1.2775-9.3348-2.1702-14.02-0.86357-2.5429-2.8442-3.3111-4.4348-3.5343-2.724-0.21215-5.6718 1.2069-7.0501 4.9276-4.603 11.171 2.6759 22.328 1.6025 27.157z" fill="url(#p)"/>
  <path transform="matrix(-.79568 -.86116 .86499 -.7349 -809.49 244.24)" d="m-311.33 175.91-5.6279-4.2209 3.5174-1.0552 3.8692 2.4622z" fill="#955227" filter="url(#b)"/>
  <path transform="matrix(-.79568 -.86116 .86499 -.7349 -813.78 250.94)" d="m-325.33 181.91-5.6279-4.2209 3.5174-1.0552 3.8692 2.4622z" fill="#955227" filter="url(#b)"/>
  <path transform="matrix(-.79568 -.86116 .86499 -.7349 -809.49 244.24)" d="m-312.95 163.25 7.4616 10.446 0.49744-1.2436-2.7359-5.9693z" fill="#fff" filter="url(#e)" opacity=".39465"/>
  <path transform="matrix(-.79568 -.86116 .86499 -.7349 -813.78 250.94)" d="m-335.34 177.93 1.741 3.4821 2.9846 1.741h4.2283l-3.4821-2.7359-2.4872-0.49744z" fill="#fff" filter="url(#d)" opacity=".39465"/>
  <path transform="matrix(.5139 -.11494 .11494 .5139 -487.05 72.394)" d="m-263.17 254.73c1.3223 2.557 4.0217 3.6158 6.5645 4.5682 2.2305 0.36769 4.5544-3.2976 6.7068-2.0081 2.1897 1.3905 2.7709 8.1812 5.3358 8.6304 2.0886 0.3149 4.7157-0.28522 6.3418-3.3862 1.9099-4.1787 1.9751-9.7005 0.6714-13.472-1.0349-3.107-3.6125-3.1172-5.7407-2.8303-2.4505 0.19706-4.6574 8e-3 -6.7439-1.8724-0.77049-3.0708 0.92027-8.2311 1.1726-12.406-0.17903-2.3319-1.6665-3.3355-2.9448-3.8036-2.2253-0.65579-4.984 0.049-6.924 3.0014-6.2117 8.7838-2.5177 19.622-4.4394 23.578z" fill="#1a1a1a" filter="url(#g)" opacity=".5"/>
  <path d="m-593.18 232.83c0.97344 1.1621 2.4824 1.3959 3.8986 1.5931 1.1885-0.0674 1.9615-2.2181 3.2158-1.8029 1.2851 0.4629 2.3643 3.8858 3.7341 3.8219 1.1095-0.0782 2.3906-0.68859 2.8698-2.4691 0.50121-2.367-0.1-5.2121-1.2034-7.0004-0.88895-1.4777-2.2148-1.1867-3.2755-0.79463-1.2366 0.38293-2.3925 0.53944-3.6809-0.18708-0.74891-1.4895-0.47317-4.3357-0.82338-6.5102-0.36003-1.1778-1.2398-1.5226-1.9505-1.6162-1.219-0.0812-2.5557 0.59805-3.2133 2.3383-2.1826 5.228 0.9615 10.373 0.42872 12.627z" fill="url(#q)"/>
  <path transform="matrix(-.34754 -.39563 .39563 -.34754 -766.43 159.08)" d="m-311.33 175.91-5.6279-4.2209 3.5174-1.0552 3.8692 2.4622z" fill="#955227" filter="url(#b)"/>
  <path transform="matrix(-.34754 -.39563 .39563 -.34754 -768.42 162.23)" d="m-325.33 181.91-5.6279-4.2209 3.5174-1.0552 3.8692 2.4622z" fill="#955227" filter="url(#b)"/>
  <path transform="matrix(-.34754 -.39563 .39563 -.34754 -766.43 159.08)" d="m-312.95 163.25 7.4616 10.446 0.49744-1.2436-2.7359-5.9693z" fill="#fff" filter="url(#e)" opacity=".39465"/>
  <path transform="matrix(-.34754 -.39563 .39563 -.34754 -768.42 162.23)" d="m-335.34 177.93 1.741 3.4821 2.9846 1.741h4.2283l-3.4821-2.7359-2.4872-0.49744z" fill="#fff" filter="url(#d)" opacity=".39465"/>
  <path transform="matrix(.55054 -.11842 .11842 .55054 -419.58 582.84)" d="m-263.17 242.73c1.3223 2.557 4.0217 3.6158 6.5645 4.5682 2.2305 0.36769 4.5544-3.2976 6.7068-2.0081 2.1897 1.3905 2.7709 8.1812 5.3358 8.6304 2.0886 0.3149 4.7157-0.28522 6.3418-3.3862 1.9099-4.1787 1.9751-9.7005 0.6714-13.472-1.0349-3.107-3.6125-3.1172-5.7407-2.8303-2.4505 0.19706-4.6574 8e-3 -6.7439-1.8724-0.77049-3.0708 0.92027-8.2311 1.1726-12.406-0.17903-2.3319-1.6665-3.3355-2.9448-3.8036-2.2253-0.65579-4.984 0.049-6.924 3.0014-6.2117 8.7838-2.5177 19.622-4.4394 23.578z" fill="#1a1a1a" filter="url(#g)" opacity=".5"/>
  <path d="m-535.89 746.86c1.0308 1.2512 2.6423 1.5144 4.155 1.7376 1.2715-0.0617 2.1169-2.3548 3.4546-1.8998 1.3702 0.50623 2.4944 4.176 3.9596 4.1196 1.1871-0.074 2.5624-0.71546 3.0904-2.6153 0.55664-2.5268-0.0614-5.5744-1.2258-7.4964-0.93769-1.588-2.358-1.2884-3.4957-0.87835-1.3258 0.39868-2.5631 0.55594-3.9345-0.23221-0.78784-1.5994-0.4681-4.6406-0.8236-6.9689-0.37472-1.2626-1.3125-1.639-2.0717-1.7453-1.3028-0.0975-2.7381 0.6172-3.4565 2.4724-2.3796 5.5715 0.93756 11.101 0.34815 13.507z" fill="url(#r)"/>
  <path transform="matrix(-.36818 -.4261 .4261 -.36818 -720.51 666.49)" d="m-311.33 175.91-5.6279-4.2209 3.5174-1.0552 3.8692 2.4622z" fill="#955227" filter="url(#b)"/>
  <path transform="matrix(-.36818 -.4261 .4261 -.36818 -722.67 669.84)" d="m-325.33 181.91-5.6279-4.2209 3.5174-1.0552 3.8692 2.4622z" fill="#955227" filter="url(#b)"/>
  <path transform="matrix(-.36818 -.4261 .4261 -.36818 -720.51 666.49)" d="m-312.95 163.25 7.4616 10.446 0.49744-1.2436-2.7359-5.9693z" fill="#fff" filter="url(#e)" opacity=".39465"/>
  <path transform="matrix(-.36818 -.4261 .4261 -.36818 -722.67 669.84)" d="m-335.34 177.93 1.741 3.4821 2.9846 1.741h4.2283l-3.4821-2.7359-2.4872-0.49744z" fill="#fff" filter="url(#d)" opacity=".39465"/>
  <path transform="matrix(-.72446 -.68931 .68931 -.72446 -1110.1 441.64)" d="m-316.44 158.71c-2.4728 0.38042-6.048 1.9631-8.1011 4.1734-1.4822 2.1133-0.26721 5.825-2.3344 7.5157-2.1568 1.6907-5.7428 0.49022-7.4651 2.9105-1.3678 1.9898-2.4093 4.8642-1.1937 7.6615 1.7935 3.4856 5.5209 5.6108 8.8111 5.7022 2.689 0.11472 4.1192-2.4821 5.0986-4.7364 1.2187-2.5459 2.5664-4.7018 4.9997-6.1058 2.5183 0.36795 5.1018 3.9985 7.8079 5.8102 1.6882 0.68913 3.1935-0.43734 4.2183-1.5525 1.6756-2.0006 2.7185-5.0469 1.7774-8.1054-4.4612-9.624-10.336-13.157-13.619-13.273z" fill="#1a1a1a" filter="url(#f)" opacity=".5"/>
  <path d="m-772.13 543.87c2.0537 1.429 5.7347 2.7468 8.7457 2.5608 2.5305-0.50934 4.2089-4.0358 6.8719-3.8357 2.7279 0.26185 4.4984 3.6034 7.4144 3.0373 2.3625-0.49869 5.0984-1.8632 6.146-4.7276 1.1034-3.7614-0.13205-7.8704-2.4528-10.205-1.869-1.9367-4.6951-1.0412-6.9586-0.0832-2.6378 1.0043-5.1002 1.6374-7.8309 0.97704-1.5708-2.0025-0.93984-6.4136-1.6515-9.5914-0.74799-1.6629-2.615-1.8845-4.1262-1.783-2.593 0.29431-5.4483 1.7824-6.8748 4.6468-3.402 10.047-1.5809 16.657 0.71677 19.004z" fill="url(#s)"/>
  <path transform="matrix(-.72446 -.68931 .68931 -.72446 -1110.5 439.44)" d="m-311.33 175.91-5.6279-4.2209 3.5174-1.0552 3.8692 2.4622z" fill="#955227" filter="url(#b)"/>
  <path transform="matrix(-.72446 -.68931 .68931 -.72446 -1110.5 439.44)" d="m-325.33 181.91-5.6279-4.2209 3.5174-1.0552 3.8692 2.4622z" fill="#955227" filter="url(#b)"/>
  <path transform="matrix(-.72446 -.68931 .68931 -.72446 -1110.5 439.44)" d="m-312.95 163.25 7.4616 10.446 0.49744-1.2436-2.7359-5.9693z" fill="#fff" filter="url(#e)" opacity=".39465"/>
  <path transform="matrix(-.72446 -.68931 .68931 -.72446 -1110.5 439.44)" d="m-335.34 177.93 1.741 3.4821 2.9846 1.741h4.2283l-3.4821-2.7359-2.4872-0.49744z" fill="#fff" filter="url(#d)" opacity=".39465"/>
  <path transform="matrix(.92444 .38134 -.38134 .92444 161.1 266.59)" d="m-408.9375,106.25c-.3924.18787-.78191.50563-1.0625.96875-.57672.95188-.50129,2.03911.15625,2.4375 .28386.17198.62214.17812.96875.0625-.00025-.0162-.0312-1.4375-.0312-1.4375-.006-.67985-.0165-1.354-.0312-2.03125zm-67.03125,11.90625c-.62081.0965-1.21179.66235-1.46875,1.4375-.33561,1.01244.0562,2.05145.84375,2.3125s1.69563-.36256 2.03125-1.375-.0563-2.05147-.84375-2.3125c-.0984-.0326-.18033-.0562-.28125-.0625-.0883-.006-.19256-.0138-.28125,0zm-36.375,6.9375c-.72975-.002-1.36672.3469-1.5625.9375-.26103.78746.36251,1.69562 1.375,2.03125s2.02021-.025 2.28125-.8125-.33125-1.69562-1.34375-2.03125c-.25312-.0839-.50675-.12445-.75-.125zm13.59375,26.96875c-.0987-.004-.21183.0131-.3125.0312-.60403.10867-1.18579.64691-1.4375,1.40625-.33562,1.01245.0251,2.05147.8125,2.3125s1.69563-.36255 2.03125-1.375-.0251-2.05147-.8125-2.3125c-.0984-.0326-.18259-.0583-.28125-.0625zm-17.75,19.28125c-.72974-.002-1.36673.37815-1.5625.96875-.26104.78746.36257,1.69564 1.375,2.03125s2.05146-.0563 2.3125-.84375-.36257-1.69564-1.375-2.03125c-.25311-.0839-.50675-.12445-.75-.125zm-61.1875,21.1875c-.62081.0965-1.21179.66235-1.46875,1.4375-.33561,1.01244.0562,2.0202.84375,2.28125s1.69563-.33131 2.03125-1.34375-.0251-2.05147-.8125-2.3125c-.0984-.0326-.21158-.0562-.3125-.0625-.0883-.006-.19256-.0138-.28125,0zm143.75,5.96875c-.11773.0123-.22504.0282-.34375.0625-.94967.27422-1.5214,1.16835-1.28125,2s1.20658,1.30547 2.15625,1.03125 1.52142-1.16827 1.28125-2c-.21012-.7277-.98838-1.17957-1.8125-1.09375zm-180.125.96875c-.72975-.002-1.36672.3469-1.5625.9375-.26103.78746.36251,1.69562 1.375,2.03125s2.05146-.025 2.3125-.8125-.3625-1.69562-1.375-2.03125c-.25312-.0839-.50675-.12445-.75-.125zm148.25,20.4375c-.11773.0123-.22504.0282-.34375.0625-.94968.27423-1.52139,1.16835-1.28125,2s1.20658,1.27422 2.15625,1 1.5214-1.16834 1.28125-2c-.21012-.72769-.98839-1.14833-1.8125-1.0625zm-134.65625,6.53125c-.0987-.004-.21183.0131-.3125.0312-.60403.10867-1.18579.64691-1.4375,1.40625-.33562,1.01245.0251,2.05147.8125,2.3125s1.72688-.36255 2.0625-1.375-.0563-2.05147-.84375-2.3125c-.0984-.0326-.18259-.0583-.28125-.0625zm159.96875,8.4375c-.0945-.00065-.18892.005-.28125.0312-.73857.21328-1.05877,1.24317-.75,2.3125s1.13638,1.77578 1.875,1.5625 1.09002-1.24317.78125-2.3125c-.27018-.93567-.96342-1.58919-1.625-1.59375zm-43.3125.96875c-.0945-.00065-.18892.005-.28125.0312-.73868.21328-1.09001,1.27449-.78125,2.34375s1.16762,1.74454 1.90625,1.53125 1.05876-1.24323.75-2.3125c-.27016-.93559-.93218-1.58917-1.59375-1.59375zm-134.40625,9.875c-.72974-.002-1.33548.3469-1.53125.9375-.26104.78746.33132,1.72689 1.34375,2.0625s2.05146-.0563 2.3125-.84375-.36257-1.69564-1.375-2.03125c-.25311-.0839-.50675-.12445-.75-.125zm94.3125,60.6875c-.98846,0-1.78125.69687-1.78125,1.5625s.79279,1.5625 1.78125,1.5625 1.8125-.69679 1.8125-1.5625-.82404-1.5625-1.8125-1.5625zm-36.5625,11.71875c-.98846,0-1.78125.69687-1.78125,1.5625s.79279,1.5625 1.78125,1.5625 1.8125-.69687 1.8125-1.5625-.82405-1.5625-1.8125-1.5625zm-21.65625,10.3125c-.7688,0-1.375.88706-1.375,2s.6062,2.03125 1.375,2.03125 1.40625-.9183 1.40625-2.03125-.63745-2-1.40625-2zm154.625,9.65625c-1.11298,0-2.03125.72812-2.03125,1.59375s.91827,1.5625 2.03125,1.5625 2-.69679 2-1.5625-.88703-1.59375-2-1.59375zm-112.71875,1.40625c-.7688,0-1.375.91823-1.375,2.03125s.6062,2 1.375,2 1.40625-.88698 1.40625-2-.63745-2.03125-1.40625-2.03125zm131.0625,31.71875c-.86566,0-1.5625.91823-1.5625,2.03125s.69684,2 1.5625,2 1.5625-.88698 1.5625-2-.69686-2.03125-1.5625-2.03125zm-175.375,41.46875c-.22818-.009-.4526.0482-.6875.125-.93958.30697-1.48758,1.20843-1.21875,2.03125s1.24792,1.24448 2.1875.9375 1.48761-1.23959 1.21875-2.0625c-.20162-.61711-.81546-1.00455-1.5-1.03125zm131.15625,3.21875c-.82967,0-1.5.87087-1.5,1.9375s.67033,1.9375 1.5,1.9375 1.5-.87088 1.5-1.9375-.67042-1.9375-1.5-1.9375zm-32.1875,18.03125c-1.06667,0-1.90625.6704-1.90625,1.5s.83958,1.5 1.90625,1.5 1.9375-.6704 1.9375-1.5-.87082-1.5-1.9375-1.5zm-130.4375,1.25c-.11399.015-.22631.0554-.34375.0937-.93959.30698-1.48758,1.23968-1.21875,2.0625s1.24792,1.24448 2.1875.9375 1.48758-1.23967 1.21875-2.0625c-.20162-.61711-.81547-1.00457-1.5-1.03125-.11409-.005-.22976-.015-.34375,0zm25.84375,14.09375c-.0945.003-.1899.0326-.28125.0625-.73079.23876-1.06441,1.28576-.71875,2.34375s1.23797,1.70751 1.96875,1.46875 1.03316-1.28577.6875-2.34375c-.30245-.92574-.99492-1.54962-1.65625-1.53125zm-43.28125,2.5c-.0945.003-.1899.001-.28125.0312-.73079.23876-1.03314,1.28584-.6875,2.34375s1.20671,1.73876 1.9375,1.5 1.03314-1.28583.6875-2.34375c-.30244-.92567-.99492-1.54961-1.65625-1.53125zm168.8125,3.59375c-.82959,0-1.5.87088-1.5,1.9375s.67041,1.90625 1.5,1.90625 1.53125-.83962 1.53125-1.90625-.70166-1.9375-1.53125-1.9375zm-10.3125,23.78125c-1.0666,0-1.9375.67041-1.9375,1.5s.8709,1.5 1.9375,1.5 1.9375-.6704 1.9375-1.5-.8709-1.5-1.9375-1.5zm-98.8125,49.0625c-1.11296,0-2,.63744-2,1.40625s.88705,1.375 2,1.375 2.03125-.60619 2.03125-1.375-.91832-1.40625-2.03125-1.40625zm10.78125,21.28125c-.86563,0-1.59375.79278-1.59375,1.78125s.72812,1.78125 1.59375,1.78125 1.5625-.7928 1.5625-1.78125-.69687-1.78125-1.5625-1.78125zm143.1875,10.8125c-.86563,0-1.5625.79279-1.5625,1.78125s.69687,1.8125 1.5625,1.8125 1.5625-.82404 1.5625-1.8125-.69679-1.78125-1.5625-1.78125zm-165.0625,9.8125c-1.11302,0-2,.63747-2,1.40625s.88698,1.375 2,1.375 2.03125-.60618 2.03125-1.375-.91823-1.40625-2.03125-1.40625zm33.5625,15.90625c-.86572,0-1.5625.82403-1.5625,1.8125s.69678,1.78125 1.5625,1.78125 1.59375-.79278 1.59375-1.78125-.72812-1.8125-1.59375-1.8125zm143.21875,10.84375c-.86563,0-1.5625.7928-1.5625,1.78125s.69687,1.78125 1.5625,1.78125 1.5625-.79279 1.5625-1.78125-.69687-1.78125-1.5625-1.78125zm-198.875,71.71875c-.86563,0-1.5625.79279-1.5625,1.78125s.69687,1.78125 1.5625,1.78125 1.5625-.79279 1.5625-1.78125-.69679-1.78125-1.5625-1.78125zm33.5625,16.6875c-1.11302,0-2,.63745-2,1.40625s.88698,1.375 2,1.375 2.03125-.6062 2.03125-1.375-.91823-1.40625-2.03125-1.40625zm168.84375,15.9375c-1.11298,0-2.03125.69687-2.03125,1.5625s.91827,1.5625 2.03125,1.5625 2-.69679 2-1.5625-.88703-1.5625-2-1.5625zm-190.6875,3.9375c-.86563,0-1.5625.7928-1.5625,1.78125s.69687,1.78125 1.5625,1.78125 1.5625-.79279 1.5625-1.78125-.69687-1.78125-1.5625-1.78125zm10.78125,22.03125c-1.11294,0-2.03125.63745-2.03125,1.40625s.91831,1.375 2.03125,1.375 2-.6062 2-1.375-.88705-1.40625-2-1.40625z" fill="#2c0d0a" filter="url(#h)"/>
  <path d="m-496.43 782.82c1.8781-1.133 4.4062-1.1665 6.5111-0.32265 2.0031 0.82943 3.6107 2.6335 3.9032 4.6991 0.36948 1.9259-0.24242 3.9324-1.6311 5.291-1.5625 1.5969-3.6423 2.6141-5.6617 3.6126-1.4644 0.67183-3.2885 1.1978-4.8898 0.39243-1.861-0.97195-3.0178-2.9608-3.2113-4.9018-0.17749-3.0843 1.5056-5.9461 3.8035-7.9099 0.37079-0.31147 0.76299-0.60035 1.176-0.86074z" fill="url(#t)"/>
  <path transform="matrix(.09964 .17444 -.1786 .08637 -393.59 786.02)" d="m-211.91 417.63-16.913 11.939-2.9846 16.913 8.954 15.918 2.9846-21.887z" fill="#532c17" filter="url(#c)"/>
  <path d="m-477.85 295.73c0.47591-1.5365 1.806-2.7358 3.3164-3.2265 1.4496-0.45153 3.1391-0.15066 4.2496 0.91634 1.0869 0.94966 1.6886 2.4042 1.5775 3.8438-0.0935 1.6595-0.73034 3.2228-1.3436 4.7468-0.46891 1.0748-1.1967 2.2325-2.4212 2.5105-1.4398 0.30216-2.9748-0.31674-3.975-1.3573-1.5201-1.7142-1.9471-4.167-1.6317-6.3834 0.0534-0.3545 0.12861-0.70583 0.2281-1.0503z" fill="url(#u)"/>
  <path transform="matrix(.13366 .05514 -.05514 .13366 -421.64 249.61)" d="m-211.91 417.63-16.913 11.939-2.9846 16.913 8.954 15.918 2.9846-21.887z" fill="#532c17" filter="url(#c)"/>
  <path d="m-340.34 220.54c2.0173-1.3095 4.693-1.4141 6.8976-0.53218 2.0972 0.86865 3.7501 2.8313 4.0045 5.1198 0.33959 2.1311-0.36129 4.3779-1.8668 5.9252-1.6957 1.8168-3.9234 3.003-6.0866 4.1668-1.5673 0.78587-3.5113 1.4192-5.184 0.56656-1.9431-1.0309-3.1141-3.211-3.2671-5.3636-0.1056-3.424 1.7515-6.6501 4.2351-8.8944 0.4006-0.35612 0.82327-0.68771 1.2672-0.98818z" fill="url(#v)"/>
  <path transform="matrix(.10077 .19126 -.19126 .10077 -231.62 221.36)" d="m-211.91 417.63-16.913 11.939-2.9846 16.913 8.954 15.918 2.9846-21.887z" fill="#532c17" filter="url(#c)"/>
  <path d="m-548.9 672c2.3794-1.0375 5.7532-0.7849 8.6621 0.38915 2.7712 1.1465 5.1257 3.3252 5.7531 5.6424 0.71425 2.1716 0.12658 4.3198-1.5731 5.6628-1.9046 1.5865-4.5668 2.4729-7.1504 3.3455-1.8796 0.57502-4.2563 0.9476-6.488-0.12626-2.5976-1.2878-4.3711-3.6192-4.852-5.7873-0.59045-3.4304 1.3304-6.4015 4.1756-8.3094 0.4597-0.30189 0.95061-0.57634 1.4726-0.81691z" fill="url(#w)"/>
  <path transform="matrix(.1531 .20428 -.22872 .07503 -411.14 687.33)" d="m-211.91 417.63-16.913 11.939-2.9846 16.913 8.954 15.918 2.9846-21.887z" fill="#532c17" filter="url(#c)"/>
  <path transform="matrix(.92444 .38134 -.38134 .92444 -213.28 391.7)" d="m-316.44 98.713c-2.4728 0.38042-6.048 1.9631-8.1011 4.1734-1.4822 2.1133-0.26721 5.825-2.3344 7.5157-2.1568 1.6907-5.7428 0.49022-7.4651 2.9105-1.3678 1.9898-2.4093 4.8642-1.1937 7.6615 1.7935 3.4856 5.5209 5.6108 8.8111 5.7022 2.689 0.11472 4.1192-2.4821 5.0986-4.7364 1.2187-2.5459 2.5664-4.7018 4.9997-6.1058 2.5183 0.36795 5.1018 3.9985 7.8079 5.8102 1.6882 0.68913 3.1935-0.43734 4.2183-1.5525 1.6756-2.0006 2.7185-5.0469 1.7774-8.1054-4.4612-9.624-10.336-13.157-13.619-13.273z" fill="#1a1a1a" filter="url(#f)" opacity=".5"/>
  <path d="m-543.68 360.99c-2.431-0.59132-6.3396-0.49157-9.0804 0.76874-2.176 1.3884-2.4683 5.283-5.024 6.0576-2.6385 0.74046-5.4958-1.7368-8.0109-0.15618-2.0232 1.3178-4.0822 3.5779-4.0251 6.6273 0.32874 3.9061 2.9641 7.2922 5.9709 8.6313 2.442 1.1315 4.7544-0.72374 6.5196-2.4342 2.0975-1.8888 4.1654-3.3679 6.9503-3.7378 2.1877 1.3005 3.1915 5.6419 5.0022 8.3486 1.2978 1.2808 3.119 0.81351 4.4916 0.17346 2.3119-1.2104 4.4376-3.6288 4.734-6.8151-0.45406-10.598-4.5382-16.104-7.528-17.464z" fill="url(#x)"/>
  <path transform="matrix(.92444 .38134 -.38134 .92444 -213.28 391.7)" d="m-311.33 115.91-5.6279-4.2209 3.5174-1.0552 3.8692 2.4622z" fill="#955227" filter="url(#b)"/>
  <path transform="matrix(.92444 .38134 -.38134 .92444 -213.28 391.7)" d="m-325.33 121.91-5.6279-4.2209 3.5174-1.0552 3.8692 2.4622z" fill="#955227" filter="url(#b)"/>
  <path transform="matrix(.92444 .38134 -.38134 .92444 -213.28 391.7)" d="m-312.95 103.25 7.4616 10.446 0.49744-1.2436-2.7359-5.9693z" fill="#fff" filter="url(#e)" opacity=".39465"/>
  <path transform="matrix(.92444 .38134 -.38134 .92444 -213.28 391.7)" d="m-335.34 117.93 1.741 3.4821 2.9846 1.741h4.2283l-3.4821-2.7359-2.4872-0.49744z" fill="#fff" filter="url(#d)" opacity=".39465"/>
  <path d="m-510.92 654.05c0.66088-1.5473 2.5642-2.5631 4.7414-2.7853 2.0898-0.19255 4.5406 0.46725 6.1673 1.8302 1.5904 1.2328 2.4877 2.9081 2.3531 4.4248-0.10517 1.7553-0.99846 3.299-1.8584 4.8055-0.65914 1.0551-1.6914 2.147-3.4587 2.1992-2.0784 0.0348-4.3114-0.93403-5.7779-2.2466-2.2314-2.1367-2.8939-4.8442-2.4777-7.1506 0.0708-0.36828 0.17331-0.7288 0.31103-1.0771z" fill="url(#y)"/>
  <path transform="matrix(.19446 .0857 -.07737 .13185 -430.39 615.99)" d="m-211.91 417.63-16.913 11.939-2.9846 16.913 8.954 15.918 2.9846-21.887z" fill="#532c17" filter="url(#c)"/>
  <path d="m-565.83 94.854c0.66088-1.5473 2.5642-2.5631 4.7414-2.7853 2.0898-0.19255 4.5406 0.46725 6.1673 1.8302 1.5904 1.2328 2.4877 2.9081 2.3531 4.4248-0.10517 1.7553-0.99846 3.299-1.8584 4.8055-0.65914 1.0551-1.6914 2.1471-3.4587 2.1992-2.0784 0.0348-4.3114-0.93403-5.7779-2.2466-2.2314-2.1368-2.8939-4.8442-2.4777-7.1506 0.0708-0.36828 0.17331-0.7288 0.31103-1.0771z" fill="url(#z)"/>
  <path transform="matrix(.19446 .0857 -.07737 .13185 -485.3 56.801)" d="m-211.91 417.63-16.913 11.939-2.9846 16.913 8.954 15.918 2.9846-21.887z" fill="#532c17" filter="url(#c)"/>
  <path d="m-793.63 646.23c1.7055-1.6658 3.7278-2.1684 5.2517-1.5701 1.4454 0.60012 2.3967 2.4095 2.2512 4.7651-0.0585 2.1785-0.91433 4.6309-2.2709 6.4701-1.5388 2.149-3.384 3.7167-5.1775 5.2515-1.291 1.0521-2.8422 2-3.9715 1.3542-1.3059-0.79242-1.8638-2.9-1.6623-5.1284 0.42396-3.5648 2.2909-7.2112 4.4836-9.9229 0.3528-0.43126 0.71855-0.8401 1.0957-1.2195z" fill="url(#aa)"/>
  <path transform="matrix(.04748 .18519 -.15827 .13348 -712.21 631.11)" d="m-211.91 417.63-16.913 11.939-2.9846 16.913 8.954 15.918 2.9846-21.887z" fill="#532c17" filter="url(#c)"/>
  <path d="m-588.95 307.56c2.2714-1.3702 5.3289-1.4107 7.8746-0.39021 2.4226 1.0031 4.3668 3.185 4.7205 5.6832 0.44685 2.3292-0.29319 4.7559-1.9726 6.399-1.8897 1.9313-4.405 3.1615-6.8473 4.3691-1.7711 0.81252-3.9772 1.4487-5.9138 0.47462-2.2507-1.1755-3.6498-3.5808-3.8838-5.9284-0.21466-3.7302 1.8209-7.1913 4.6-9.5663 0.44843-0.37669 0.92277-0.72607 1.4223-1.041z" fill="url(#ab)"/>
  <path transform="matrix(.1205 .21097 -.216 .10446 -464.58 311.44)" d="m-211.91 417.63-16.913 11.939-2.9846 16.913 8.954 15.918 2.9846-21.887z" fill="#532c17" filter="url(#c)"/>
  <path d="m-518.63 485.95c-1.1959-1.9824-1.2313-4.651-0.34057-6.8729 0.87551-2.1144 2.7798-3.8113 4.9602-4.12 2.0329-0.39001 4.1508 0.25589 5.5849 1.7217 1.6856 1.6493 2.7593 3.8447 3.8133 5.9762 0.70916 1.5458 1.2644 3.4712 0.41424 5.1614-1.026 1.9644-3.1253 3.1855-5.1742 3.3897-3.2557 0.18735-6.2765-1.5893-8.3494-4.0148-0.32877-0.39138-0.6337-0.80538-0.90856-1.2414z" fill="url(#ac)"/>
  <path transform="matrix(.18414 -.10517 .09117 .18852 -515.25 377.4)" d="m-211.91 417.63-16.913 11.939-2.9846 16.913 8.954 15.918 2.9846-21.887z" fill="#532c17" filter="url(#c)"/>
  <path d="m-651.35 568.26c1.8353-1.1072 4.3059-1.1399 6.363-0.3153 1.9575 0.81055 3.5285 2.5736 3.8144 4.5922 0.36107 1.8821-0.23691 3.8429-1.594 5.1706-1.5269 1.5606-3.5594 2.5546-5.5328 3.5304-1.4311 0.65655-3.2137 1.1706-4.7785 0.38351-1.8186-0.94984-2.9491-2.8934-3.1382-4.7903-0.17345-3.0142 1.4714-5.8108 3.717-7.7299 0.36234-0.30438 0.74563-0.58669 1.1493-0.84116z" fill="url(#ad)"/>
  <path transform="matrix(.09737 .17047 -.17453 .0844 -550.85 571.39)" d="m-211.91 417.63-16.913 11.939-2.9846 16.913 8.954 15.918 2.9846-21.887z" fill="#532c17" filter="url(#c)"/>
  <path d="m-637.79 309.31c0.55812 2.2277 2.4106 4.1188 4.5965 5.0462 2.0996 0.86284 4.6251 0.71005 6.3672-0.60783 1.6961-1.1573 2.7229-3.0989 2.6948-5.1328 0.0187-2.3392-0.77474-4.6298-1.5371-6.862-0.59142-1.5799-1.5575-3.317-3.3411-3.9011-2.0993-0.6521-4.4265-0.0293-6.0031 1.2691-2.4087 2.1592-3.2716 5.5266-3.015 8.6811 0.0454 0.50499 0.12335 1.009 0.23782 1.5073z" fill="url(#ae)"/>
  <path transform="matrix(.20276 -.05598 -.06885 -.19597 -559.07 382.84)" d="m-211.91 417.63-16.913 11.939-2.9846 16.913 8.954 15.918 2.9846-21.887z" fill="#532c17" filter="url(#c)"/>
  <path d="m-696.15 437.82c1.7042-1.0281 3.9984-1.0585 5.9085-0.29278 1.8177 0.75266 3.2765 2.3897 3.5419 4.2642 0.33527 1.7476-0.21999 3.5684-1.4801 4.8012-1.4178 1.4491-3.3052 2.3721-5.1376 3.2782-1.3289 0.60965-2.9841 1.087-4.4372 0.35612-1.6887-0.882-2.7385-2.6868-2.9141-4.4481-0.16106-2.7989 1.3663-5.3958 3.4515-7.1778 0.33646-0.28263 0.69236-0.54478 1.0672-0.78107z" fill="url(#af)"/>
  <path transform="matrix(.09041 .1583 -.16207 .07837 -602.83 440.73)" d="m-211.91 417.63-16.913 11.939-2.9846 16.913 8.954 15.918 2.9846-21.887z" fill="#532c17" filter="url(#c)"/>
  <path d="m-385.61 92.972c1.311-0.79087 3.0756-0.81423 4.545-0.22522 1.3982 0.57897 2.5204 1.8382 2.7245 3.2801 0.2579 1.3444-0.16922 2.7449-1.1385 3.6933-1.0907 1.1147-2.5424 1.8247-3.952 2.5217-1.0222 0.46896-2.2955 0.83612-3.4132 0.27393-1.299-0.67845-2.1065-2.0667-2.2416-3.4216-0.12389-2.153 1.051-4.1506 2.655-5.5214 0.25882-0.21741 0.53259-0.41906 0.82091-0.60082z" fill="url(#ag)"/>
  <path transform="matrix(.06955 .12177 -.12467 .06029 -313.83 95.209)" d="m-211.91 417.63-16.913 11.939-2.9846 16.913 8.954 15.918 2.9846-21.887z" fill="#532c17" filter="url(#c)"/>
  <path d="m-439.94 586.55c1.311-0.79086 3.0756-0.81423 4.545-0.22522 1.3982 0.57897 2.5204 1.8382 2.7245 3.2801 0.2579 1.3444-0.16922 2.7449-1.1385 3.6933-1.0907 1.1147-2.5424 1.8247-3.952 2.5217-1.0222 0.46896-2.2955 0.83612-3.4132 0.27394-1.299-0.67846-2.1065-2.0668-2.2416-3.4216-0.12389-2.153 1.051-4.1506 2.655-5.5214 0.25882-0.21741 0.53259-0.41906 0.82091-0.60082z" fill="url(#ah)"/>
  <path transform="matrix(.06955 .12177 -.12467 .06029 -368.15 588.79)" d="m-211.91 417.63-16.913 11.939-2.9846 16.913 8.954 15.918 2.9846-21.887z" fill="#532c17" filter="url(#c)"/>
  <path d="m-431.83 157.95c1.3537-0.81665 3.1759-0.84078 4.6931-0.23256 1.4438 0.59784 2.6026 1.8982 2.8134 3.3871 0.26631 1.3882-0.17474 2.8344-1.1757 3.8137-1.1262 1.151-2.6253 1.8842-4.0809 2.6039-1.0555 0.48426-2.3703 0.86338-3.5245 0.28287-1.3414-0.70057-2.1752-2.1341-2.3147-3.5332-0.12793-2.2232 1.0852-4.2859 2.7415-5.7014 0.26726-0.22451 0.54996-0.43273 0.84767-0.62041z" fill="url(#ai)"/>
  <path transform="matrix(.07182 .12574 -.12873 .06225 -357.71 160.26)" d="m-211.91 417.63-16.913 11.939-2.9846 16.913 8.954 15.918 2.9846-21.887z" fill="#532c17" filter="url(#c)"/>
  <path d="m-250.22 131.03c1.4995 7.421 2.3412 15.084 2.5283 22.881 0.099-0.13982 0.20908-0.27374 0.30622-0.41455 2.1954-3.1839 6.8957-5.46 6.89-9.3274-8e-3 -5.4222-9.5592-13.008-9.7246-13.139zm-389.99 19.809c-3.7331 0.0759-8.1822 0.63791-10.243 2.7046-2.7307 2.7386-1.0022 7.6667-1.6901 11.472-0.46635 2.5799-0.66155 5.2408-1.6435 7.6717-1.0684 2.6451-4.5991 4.4406-4.5294 7.2926 0.0476 1.9464 1.4441 4.2377 3.0488 6.2945 6.3038-14.819 9.6942-22.835 15.057-35.436zm287.14 299.17c-2.7149 6.8252-5.3934 13.571-8.1414 20.474 1.026-1.9211 2.4546-3.6368 3.6971-5.4386 2.1954-3.1839 6.8957-5.46 6.89-9.3274-3e-3 -1.7787-1.0511-3.7956-2.4457-5.7077zm-9.0182 22.681c-1.1354 2.8522-2.2128 5.5928-3.3522 8.4542 0.68391-0.31015 1.2881-0.69055 1.7532-1.136 1.7957-1.7201 1.0776-4.8149 1.599-7.3182zm-461.55 111.01c-1.1872 0.38278-2.2335 0.89775-2.9535 1.5874-2.0602 1.9734-0.81031 5.7071-1.9176 8.3362-1.0176 2.4162-2.7671 4.4697-4.2554 6.6281-2.1954 3.1839-6.8957 5.46-6.89 9.3274 3e-3 1.8694 1.1706 3.9783 2.675 5.9713 3.9664-9.4997 8.5796-20.508 13.341-31.85z" fill="#a15a2c"/>
  <path transform="matrix(.92444 .38134 -.38134 .92444 161.1 266.59)" d="m-762.71 771.07 3.7758 5.6637 14.348 2.643 14.726 8.3067 34.36 0.75516-31.716-5.2861z" fill="#d58f5f" filter="url(#as)"/>
  <path transform="matrix(.92444 .38134 -.38134 .92444 161.1 266.59)" d="m-489.12-4.9082-32.038 4.2718 12.815 22.427 39.514 9.6116 23.495 22.427 16.019 28.835 8.5436 214.66-1.068 163.4-2.1359 39.514 1.068 122.81-1.068 82.232-7.4756 32.038-45.922 11.747-7.4756 13.883 18.155 5.3398 22.427 2.1359 27.767-9.6116 6.4077-245.63-3.2038-209.32-3.2038-167.67-3.2038-63.009-14.951-29.903-18.155-27.767z" fill="#2e0e0b" filter="url(#ar)"/>
  <path transform="matrix(.92444 .38134 -.38134 .92444 161.1 266.59)" d="m-492.36 762.38h-33.227l-25.675 4.5309-31.716-13.593-52.861 12.082-57.392 4.5309-36.247-4.5309 37.758-10.572 55.881-1.5103 43.799-15.103 37.758 4.5309 33.227 10.572 30.206-4.5309z" fill="#69381b" filter="url(#aq)"/>
  <path transform="matrix(.92444 .38134 -.38134 .92444 161.1 266.59)" d="m-726.46 747.28-46.82 9.0618-7.5516-104.21 7.5516-96.66-1.5103-98.17 10.572 57.392-1.5103 114.78 7.5515 87.598z" fill="#5e3016" filter="url(#ap)"/>
  <path transform="matrix(.92444 .38134 -.38134 .92444 161.1 266.59)" d="m-750.62 81.233c-6.1737-2.1722-18.124 7.5516-18.124 7.5516l-4.5309 95.149v240.14l-1.5103 125.36s12.339 172.83 13.593 129.1l6.0412-210.66-3.0206-163.11v-185.77s15.868-12.212 16.613-21.144c0.52492-6.2862-3.1114-14.52-9.0619-16.613z" fill="#90684f" filter="url(#ao)"/>
  <path transform="matrix(.90289 .42986 -.42986 .90289 194.97 309.63)" d="m-601.34 429.94c-67.369 0-127.69 25.082-169.72 64.469-0.65398 69.208-1.2176 135.81-1.5 184.84-0.14668 25.467-0.21144 46.438-0.1875 61.031 8e-3 5.1673 0.0292 8.4496 0.0625 11.906 1.001 0.0257 2.3319 0.11317 4.2188-0.125 4.5285-0.57164 10.805-1.8004 19.062 0 8.2418 1.7971 13.322 5.7031 16.594 7.75s4.5455 2.6077 6.0938 2.8125c9.9783 1.3197 20.933 2.4064 32.531 3.0312 25.3 1.363 59.058-8.4584 95.312-12.469 19.486-2.1555 37.16 3.4078 52.094 4.375 14.943 0.96779 30.945-1.4562 45.562-2.0625 16.036-0.6652 27.705 1.7864 36.094 3.8125s12.657 3.2449 19.625 2.7188c9.7852-0.73891 19.615-4.8448 25.688-8.125 0.18146-4.2418 0.40482-9.6875 0.5-21.344 0.12263-15.018 0.1189-35.113 0.0312-58.812-0.1688-45.643-0.68141-105.5-1.3438-168.22-42.123-45.711-107.21-75.594-180.72-75.594z" fill="#fff" filter="url(#av)" opacity=".12"/>
  <path transform="matrix(.92444 .38134 -.38134 .92444 161.1 266.59)" d="m-752.9 52.761 27.767 5.3398 40.582-14.951-42.718 8.5436z" fill="#da9866" filter="url(#an)" opacity=".91304"/>
  <path transform="matrix(.92444 .38134 -.38134 .92444 161.1 266.59)" d="m-631.43-2.9082-12.815 20.291-26.699 26.699 13.883-25.631z" fill="#da9866" filter="url(#am)" opacity=".91304"/>
 </g>
</svg>
